<svg xmlns="http://www.w3.org/2000/svg" width="76" height="94" viewBox="0 0 76 94">
  <defs>
    <style>
      .cls-1 {
        fill: none;
        stroke: #000;
        stroke-width: 0.7px;
        fill-rule: evenodd;
      }
    </style>
  </defs>
  <path id="Shape_316_1" data-name="Shape 316 1" class="cls-1" d="M43.025,30.4S38.044,15.96,32.185,10.928,24.07,1.862,18.128,5.553s-0.144,14.13.119,14.93S27.891,34.1,43.025,30.4Zm-0.238.119s0.94-20.642,9.292-26.157,11.465,0.654,9.41-1.433,5.661,3.015,2.621,10.152S50.1,33.009,42.787,30.516ZM3,48.192S5.765,31.924,6.335,30.157c2.962,0.072,49.333,3.857,63.253-1.672,2.2-.015,3.273,0,3.335,2.15S74,42.937,74,42.937s0.322,2.459-4.05,2.508S21.095,44.036,3,48.192Zm4.169-.836A30.686,30.686,0,0,0,5.5,54.4c-0.11,3.8-2.058,23.845,2.025,33.084a5.615,5.615,0,0,0,5.6,3.225c1.513-.06,24.783,5.013,54.319.239,1.956-.139,4.389.02,4.288-5.494S71.6,68.8,71.495,68.138s-0.93-19.8-.715-20.424M32.661,31.352S29.605,92.19,32.3,92.5M47.075,31.471s3.056,60.838.357,61.152"/>
</svg>
