<svg xmlns="http://www.w3.org/2000/svg" xmlns:xlink="http://www.w3.org/1999/xlink" width="86" zoomAndPan="magnify" viewBox="0 0 64.5 52.499999" height="70" preserveAspectRatio="xMidYMid meet" version="1.2"><defs><clipPath id="2ffcf1e99d"><path d="M 19 0 L 41 0 L 41 27 L 19 27 Z M 19 0 "/></clipPath><clipPath id="3ffe8495ca"><path d="M 0.0546875 1.78125 L 40.132812 -0.0078125 L 42.390625 50.460938 L 2.3125 52.25 Z M 0.0546875 1.78125 "/></clipPath><clipPath id="37af23090e"><path d="M 0.0546875 1.78125 L 40.132812 -0.0078125 L 42.390625 50.460938 L 2.3125 52.25 Z M 0.0546875 1.78125 "/></clipPath><clipPath id="ae37dac41f"><path d="M 8 32 L 24 32 L 24 52 L 8 52 Z M 8 32 "/></clipPath><clipPath id="57d579a70b"><path d="M 0.0546875 1.78125 L 40.132812 -0.0078125 L 42.390625 50.460938 L 2.3125 52.25 Z M 0.0546875 1.78125 "/></clipPath><clipPath id="a7075eb125"><path d="M 0.0546875 1.78125 L 40.132812 -0.0078125 L 42.390625 50.460938 L 2.3125 52.25 Z M 0.0546875 1.78125 "/></clipPath><clipPath id="5795b997ec"><path d="M 0.0546875 16 L 12 16 L 12 30 L 0.0546875 30 Z M 0.0546875 16 "/></clipPath><clipPath id="ae37488384"><path d="M 0.0546875 1.78125 L 40.132812 -0.0078125 L 42.390625 50.460938 L 2.3125 52.25 Z M 0.0546875 1.78125 "/></clipPath><clipPath id="a371b39ef7"><path d="M 0.0546875 1.78125 L 40.132812 -0.0078125 L 42.390625 50.460938 L 2.3125 52.25 Z M 0.0546875 1.78125 "/></clipPath><clipPath id="17d2d28d35"><path d="M 38 44 L 45 44 L 45 45 L 38 45 Z M 38 44 "/></clipPath><clipPath id="7f7fc7a51c"><path d="M 33.914062 26.148438 L 44.308594 26.519531 L 43.671875 44.335938 L 33.277344 43.964844 Z M 33.914062 26.148438 "/></clipPath><clipPath id="48f766c67f"><path d="M 34.21875 17.613281 L 67.628906 18.808594 L 66.117188 61.128906 L 32.707031 59.933594 Z M 34.21875 17.613281 "/></clipPath><clipPath id="f86cffd6d9"><path d="M 33 30 L 43 30 L 43 42 L 33 42 Z M 33 30 "/></clipPath><clipPath id="ad6ca94f30"><path d="M 33.914062 26.148438 L 44.308594 26.519531 L 43.671875 44.335938 L 33.277344 43.964844 Z M 33.914062 26.148438 "/></clipPath><clipPath id="d4213598f3"><path d="M 34.21875 17.613281 L 67.628906 18.808594 L 66.117188 61.128906 L 32.707031 59.933594 Z M 34.21875 17.613281 "/></clipPath><clipPath id="5b87e4b825"><path d="M 51 20 L 63.949219 20 L 63.949219 37 L 51 37 Z M 51 20 "/></clipPath><clipPath id="82dd707733"><path d="M 50.003906 17.542969 L 63.371094 17.230469 L 63.824219 36.542969 L 50.453125 36.855469 Z M 50.003906 17.542969 "/></clipPath><clipPath id="d316499485"><path d="M 44.472656 -5.546875 L 77.894531 -6.328125 L 78.886719 36.003906 L 45.464844 36.789062 Z M 44.472656 -5.546875 "/></clipPath><clipPath id="289046e59a"><path d="M 50 17 L 55 17 L 55 19 L 50 19 Z M 50 17 "/></clipPath><clipPath id="6ce106134b"><path d="M 50.003906 17.542969 L 63.371094 17.230469 L 63.824219 36.542969 L 50.453125 36.855469 Z M 50.003906 17.542969 "/></clipPath><clipPath id="3c2505e039"><path d="M 44.472656 -5.546875 L 77.894531 -6.328125 L 78.886719 36.003906 L 45.464844 36.789062 Z M 44.472656 -5.546875 "/></clipPath></defs><g id="b254f3059f"><g clip-rule="nonzero" clip-path="url(#2ffcf1e99d)"><g clip-rule="nonzero" clip-path="url(#3ffe8495ca)"><g clip-rule="nonzero" clip-path="url(#37af23090e)"><path style=" stroke:none;fill-rule:nonzero;fill:#848484;fill-opacity:1;" d="M 37.316406 14.652344 C 37.964844 14.464844 38.597656 14.21875 39.25 14.035156 C 39.871094 13.855469 40.570312 13.675781 40.453125 12.867188 C 40.351562 12.164062 39.675781 12.140625 39.082031 12.097656 C 37.003906 11.949219 35.359375 10.898438 33.789062 9.621094 C 31.453125 7.726562 30.980469 4.96875 30.257812 2.3125 C 30.191406 2.058594 30.164062 1.796875 30.097656 1.542969 C 29.957031 1.003906 29.710938 0.503906 29.058594 0.585938 C 28.417969 0.667969 28.308594 1.179688 28.269531 1.753906 C 28.109375 4.054688 27.765625 6.300781 26.511719 8.328125 C 25.152344 10.523438 23.679688 12.375 20.644531 11.660156 C 20.019531 11.511719 19.089844 11.488281 19.066406 12.5625 C 19.214844 13.355469 19.777344 13.628906 20.390625 13.8125 C 24.738281 15.105469 27.1875 18.171875 27.53125 22.753906 C 27.589844 23.535156 27.699219 24.3125 27.804688 25.089844 C 27.875 25.648438 27.867188 26.382812 28.652344 26.351562 C 29.542969 26.316406 29.441406 25.53125 29.453125 24.914062 C 29.488281 23.234375 29.742188 21.59375 30.421875 20.050781 C 31.753906 17.027344 34.28125 15.515625 37.316406 14.652344 Z M 35.808594 13.28125 C 32.332031 14.167969 30.269531 16.316406 28.695312 19.175781 C 27.566406 16.734375 26.386719 14.667969 24.261719 13.234375 C 27.027344 11.753906 28.226562 9.234375 29.476562 6.453125 C 30.554688 9.660156 32.863281 11.492188 35.808594 13.28125 Z M 35.808594 13.28125 "/></g></g></g><g clip-rule="nonzero" clip-path="url(#ae37dac41f)"><g clip-rule="nonzero" clip-path="url(#57d579a70b)"><g clip-rule="nonzero" clip-path="url(#a7075eb125)"><path style=" stroke:none;fill-rule:nonzero;fill:#848484;fill-opacity:1;" d="M 21.695312 42.957031 C 22.15625 42.828125 22.605469 42.652344 23.066406 42.519531 C 23.507812 42.394531 24.003906 42.265625 23.921875 41.695312 C 23.847656 41.195312 23.367188 41.175781 22.949219 41.148438 C 21.476562 41.042969 20.308594 40.296875 19.195312 39.390625 C 17.539062 38.046875 17.203125 36.089844 16.691406 34.210938 C 16.644531 34.03125 16.625 33.84375 16.578125 33.664062 C 16.476562 33.28125 16.304688 32.929688 15.839844 32.984375 C 15.386719 33.042969 15.3125 33.40625 15.28125 33.8125 C 15.167969 35.445312 14.925781 37.039062 14.035156 38.472656 C 13.074219 40.03125 12.027344 41.34375 9.875 40.835938 C 9.433594 40.730469 8.773438 40.714844 8.753906 41.476562 C 8.863281 42.039062 9.261719 42.234375 9.695312 42.363281 C 12.777344 43.28125 14.515625 45.457031 14.757812 48.703125 C 14.800781 49.257812 14.878906 49.808594 14.953125 50.359375 C 15.003906 50.757812 14.996094 51.273438 15.554688 51.253906 C 16.183594 51.230469 16.113281 50.671875 16.121094 50.234375 C 16.148438 49.042969 16.328125 47.882812 16.808594 46.785156 C 17.753906 44.644531 19.546875 43.570312 21.695312 42.957031 Z M 20.628906 41.988281 C 18.164062 42.613281 16.699219 44.136719 15.585938 46.164062 C 14.785156 44.4375 13.945312 42.972656 12.441406 41.953125 C 14.402344 40.90625 15.253906 39.117188 16.136719 37.144531 C 16.902344 39.417969 18.539062 40.71875 20.628906 41.988281 Z M 20.628906 41.988281 "/></g></g></g><g clip-rule="nonzero" clip-path="url(#5795b997ec)"><g clip-rule="nonzero" clip-path="url(#ae37488384)"><g clip-rule="nonzero" clip-path="url(#a371b39ef7)"><path style=" stroke:none;fill-rule:nonzero;fill:#848484;fill-opacity:1;" d="M 10.328125 23.820312 C 10.660156 23.726562 10.984375 23.601562 11.316406 23.503906 C 11.636719 23.414062 11.992188 23.320312 11.933594 22.90625 C 11.882812 22.550781 11.535156 22.535156 11.234375 22.515625 C 10.167969 22.4375 9.328125 21.898438 8.523438 21.246094 C 7.328125 20.277344 7.089844 18.867188 6.71875 17.507812 C 6.683594 17.378906 6.671875 17.246094 6.636719 17.117188 C 6.5625 16.839844 6.4375 16.585938 6.105469 16.625 C 5.777344 16.667969 5.722656 16.929688 5.703125 17.222656 C 5.621094 18.398438 5.445312 19.550781 4.800781 20.585938 C 4.109375 21.707031 3.355469 22.65625 1.800781 22.289062 C 1.480469 22.214844 1.007812 22.203125 0.992188 22.753906 C 1.070312 23.15625 1.355469 23.296875 1.671875 23.390625 C 3.894531 24.054688 5.148438 25.621094 5.324219 27.964844 C 5.355469 28.363281 5.410156 28.761719 5.464844 29.160156 C 5.5 29.445312 5.496094 29.820312 5.898438 29.804688 C 6.351562 29.785156 6.300781 29.386719 6.308594 29.070312 C 6.328125 28.210938 6.457031 27.371094 6.804688 26.582031 C 7.484375 25.035156 8.777344 24.261719 10.328125 23.820312 Z M 9.558594 23.121094 C 7.78125 23.574219 6.726562 24.671875 5.921875 26.132812 C 5.34375 24.886719 4.738281 23.828125 3.652344 23.09375 C 5.066406 22.339844 5.679688 21.050781 6.320312 19.625 C 6.871094 21.265625 8.050781 22.203125 9.558594 23.121094 Z M 9.558594 23.121094 "/></g></g></g><g clip-rule="nonzero" clip-path="url(#17d2d28d35)"><g clip-rule="nonzero" clip-path="url(#7f7fc7a51c)"><g clip-rule="nonzero" clip-path="url(#48f766c67f)"><path style=" stroke:none;fill-rule:nonzero;fill:#848484;fill-opacity:1;" d="M 49.574219 53.582031 C 49.972656 53.503906 50.359375 53.386719 50.753906 53.308594 C 51.132812 53.230469 51.554688 53.160156 51.523438 52.671875 C 51.496094 52.25 51.097656 52.203125 50.746094 52.148438 C 49.519531 51.960938 48.59375 51.257812 47.71875 50.425781 C 46.421875 49.1875 46.273438 47.523438 45.972656 45.914062 C 45.945312 45.757812 45.941406 45.601562 45.914062 45.449219 C 45.855469 45.121094 45.730469 44.8125 45.339844 44.828125 C 44.957031 44.847656 44.867188 45.148438 44.816406 45.484375 C 44.613281 46.84375 44.300781 48.164062 43.457031 49.308594 C 42.546875 50.546875 41.582031 51.574219 39.8125 51.007812 C 39.449219 50.890625 38.898438 50.832031 38.832031 51.46875 C 38.882812 51.945312 39.203125 52.136719 39.558594 52.273438 C 42.082031 53.25 43.386719 55.191406 43.375 57.929688 C 43.371094 58.394531 43.398438 58.863281 43.425781 59.328125 C 43.441406 59.664062 43.402344 60.101562 43.867188 60.121094 C 44.398438 60.140625 44.375 59.667969 44.414062 59.304688 C 44.515625 58.308594 44.742188 57.34375 45.222656 56.460938 C 46.15625 54.726562 47.730469 53.949219 49.574219 53.582031 Z M 48.746094 52.695312 C 46.636719 53.054688 45.308594 54.234375 44.238281 55.859375 C 43.683594 54.355469 43.082031 53.070312 41.886719 52.113281 C 43.601562 51.371094 44.433594 49.929688 45.308594 48.335938 C 45.796875 50.292969 47.082031 51.492188 48.746094 52.695312 Z M 48.746094 52.695312 "/></g></g></g><g clip-rule="nonzero" clip-path="url(#f86cffd6d9)"><g clip-rule="nonzero" clip-path="url(#ad6ca94f30)"><g clip-rule="nonzero" clip-path="url(#d4213598f3)"><path style=" stroke:none;fill-rule:nonzero;fill:#848484;fill-opacity:1;" d="M 41.339844 36.777344 C 41.625 36.71875 41.90625 36.636719 42.191406 36.578125 C 42.464844 36.523438 42.769531 36.472656 42.746094 36.121094 C 42.726562 35.816406 42.4375 35.78125 42.1875 35.742188 C 41.300781 35.609375 40.632812 35.101562 40 34.5 C 39.066406 33.605469 38.957031 32.40625 38.742188 31.246094 C 38.71875 31.132812 38.71875 31.019531 38.699219 30.910156 C 38.65625 30.671875 38.566406 30.449219 38.285156 30.464844 C 38.007812 30.476562 37.945312 30.691406 37.90625 30.9375 C 37.757812 31.917969 37.535156 32.867188 36.925781 33.695312 C 36.269531 34.585938 35.574219 35.328125 34.296875 34.917969 C 34.035156 34.835938 33.636719 34.792969 33.589844 35.253906 C 33.625 35.597656 33.855469 35.734375 34.113281 35.832031 C 35.933594 36.539062 36.875 37.9375 36.867188 39.914062 C 36.863281 40.25 36.886719 40.585938 36.902344 40.921875 C 36.914062 41.164062 36.886719 41.480469 37.222656 41.492188 C 37.605469 41.507812 37.589844 41.167969 37.617188 40.90625 C 37.691406 40.1875 37.855469 39.492188 38.199219 38.855469 C 38.875 37.605469 40.011719 37.042969 41.339844 36.777344 Z M 40.742188 36.136719 C 39.222656 36.398438 38.261719 37.246094 37.488281 38.417969 C 37.089844 37.335938 36.65625 36.40625 35.792969 35.71875 C 37.03125 35.179688 37.632812 34.140625 38.261719 32.992188 C 38.613281 34.402344 39.539062 35.269531 40.742188 36.136719 Z M 40.742188 36.136719 "/></g></g></g><g clip-rule="nonzero" clip-path="url(#5b87e4b825)"><g clip-rule="nonzero" clip-path="url(#82dd707733)"><g clip-rule="nonzero" clip-path="url(#d316499485)"><path style=" stroke:none;fill-rule:nonzero;fill:#848484;fill-opacity:1;" d="M 61.925781 29.449219 C 62.316406 29.347656 62.699219 29.210938 63.085938 29.105469 C 63.460938 29.007812 63.878906 28.910156 63.820312 28.425781 C 63.765625 28.007812 63.363281 27.984375 63.011719 27.949219 C 61.773438 27.835938 60.808594 27.1875 59.886719 26.410156 C 58.519531 25.25 58.273438 23.597656 57.878906 22.007812 C 57.839844 21.855469 57.828125 21.699219 57.789062 21.546875 C 57.710938 21.226562 57.574219 20.925781 57.183594 20.964844 C 56.800781 21.003906 56.730469 21.308594 56.699219 21.648438 C 56.574219 23.019531 56.339844 24.355469 55.566406 25.546875 C 54.730469 26.835938 53.828125 27.921875 52.027344 27.457031 C 51.65625 27.359375 51.105469 27.335938 51.074219 27.976562 C 51.15625 28.449219 51.488281 28.621094 51.851562 28.738281 C 54.425781 29.5625 55.84375 31.421875 55.992188 34.15625 C 56.019531 34.621094 56.074219 35.085938 56.125 35.550781 C 56.164062 35.886719 56.148438 36.320312 56.617188 36.3125 C 57.148438 36.304688 57.097656 35.835938 57.113281 35.46875 C 57.15625 34.46875 57.324219 33.492188 57.75 32.582031 C 58.582031 30.796875 60.109375 29.925781 61.925781 29.449219 Z M 61.046875 28.617188 C 58.964844 29.097656 57.707031 30.351562 56.734375 32.039062 C 56.089844 30.570312 55.414062 29.324219 54.164062 28.441406 C 55.832031 27.59375 56.578125 26.109375 57.359375 24.464844 C 57.960938 26.390625 59.3125 27.511719 61.046875 28.617188 Z M 61.046875 28.617188 "/></g></g></g><g clip-rule="nonzero" clip-path="url(#289046e59a)"><g clip-rule="nonzero" clip-path="url(#6ce106134b)"><g clip-rule="nonzero" clip-path="url(#3c2505e039)"><path style=" stroke:none;fill-rule:nonzero;fill:#848484;fill-opacity:1;" d="M 52.714844 13.160156 C 52.996094 13.085938 53.269531 12.988281 53.550781 12.914062 C 53.820312 12.84375 54.121094 12.773438 54.078125 12.421875 C 54.039062 12.121094 53.75 12.101562 53.496094 12.078125 C 52.601562 11.996094 51.90625 11.53125 51.242188 10.96875 C 50.253906 10.128906 50.078125 8.941406 49.792969 7.792969 C 49.765625 7.683594 49.757812 7.570312 49.730469 7.460938 C 49.671875 7.226562 49.570312 7.011719 49.289062 7.039062 C 49.015625 7.066406 48.964844 7.289062 48.941406 7.535156 C 48.851562 8.523438 48.683594 9.484375 48.125 10.34375 C 47.523438 11.277344 46.871094 12.058594 45.574219 11.722656 C 45.304688 11.652344 44.90625 11.636719 44.886719 12.097656 C 44.941406 12.441406 45.179688 12.5625 45.445312 12.648438 C 47.300781 13.242188 48.324219 14.582031 48.433594 16.554688 C 48.449219 16.890625 48.492188 17.226562 48.527344 17.5625 C 48.554688 17.804688 48.542969 18.117188 48.882812 18.113281 C 49.265625 18.105469 49.226562 17.769531 49.238281 17.503906 C 49.269531 16.78125 49.394531 16.078125 49.699219 15.421875 C 50.300781 14.132812 51.402344 13.503906 52.714844 13.160156 Z M 52.078125 12.558594 C 50.574219 12.910156 49.667969 13.8125 48.964844 15.027344 C 48.503906 13.96875 48.015625 13.070312 47.113281 12.433594 C 48.316406 11.824219 48.855469 10.75 49.417969 9.566406 C 49.851562 10.953125 50.828125 11.761719 52.078125 12.558594 Z M 52.078125 12.558594 "/></g></g></g></g></svg>